<svg width="16" height="16" viewBox="0 0 16 16" fill="none" xmlns="http://www.w3.org/2000/svg">
<rect opacity="0.01" width="16" height="16" fill="black"/>
<path fill-rule="evenodd" clip-rule="evenodd" d="M2.37499 0.191345H13.6299C14.6639 0.191345 15.5049 1.15468 15.5 2.33901V10.941C15.5 12.1253 14.6589 13.0887 13.625 13.0887H9.93929L7.99998 15.8087L6.05572 13.0887H2.37499C1.34103 13.0887 0.5 12.1253 0.5 10.941V2.33901C0.5 1.15468 1.34103 0.191345 2.37499 0.191345ZM3.02803 6.69101C3.02803 7.26334 3.4337 7.72801 3.93337 7.72801C4.43304 7.72801 4.83871 7.26334 4.83871 6.69101C4.83871 6.11868 4.43304 5.65401 3.93337 5.65401C3.4337 5.65401 3.02803 6.11868 3.02803 6.69101ZM8.00987 7.72801C7.5102 7.72801 7.10453 7.26334 7.10453 6.69101C7.10453 6.11868 7.5102 5.65401 8.00987 5.65401C8.50954 5.65401 8.91521 6.11868 8.91521 6.69101C8.91521 7.26334 8.50954 7.72801 8.00987 7.72801ZM11.181 6.69101C11.181 7.26334 11.5867 7.72801 12.0864 7.72801C12.586 7.72801 12.9917 7.26334 12.9917 6.69101C12.9917 6.11868 12.586 5.65401 12.0864 5.65401C11.5867 5.65401 11.181 6.11868 11.181 6.69101Z" fill="white"/>
</svg>
