<svg width="16" height="16" viewBox="0 0 16 16" fill="none" xmlns="http://www.w3.org/2000/svg">
<rect opacity="0.01" width="16" height="16" fill="black"/>
<path fill-rule="evenodd" clip-rule="evenodd" d="M12.0839 4.59352C11.0348 4.59352 10.1844 3.73167 10.1844 2.6685C10.1844 2.32269 10.2749 1.99838 10.4324 1.71792C9.7494 1.21449 8.90921 0.916748 8.00006 0.916748C5.71318 0.916748 3.85929 2.79559 3.85929 5.11326C3.85929 7.43092 5.71318 9.3098 8.00006 9.3098C10.287 9.3098 12.1408 7.43092 12.1408 5.11326C12.1408 4.9369 12.1288 4.76352 12.1081 4.59291L12.0972 4.59321H12.0972C12.0927 4.59336 12.0883 4.59352 12.0839 4.59352ZM15.4385 15.2581C15.4431 15.1495 15.4458 15.0405 15.4458 14.9308C15.4458 12.5368 14.3456 10.4034 12.6298 9.021C11.3588 10.0451 9.75004 10.6573 8.00002 10.6573C6.25004 10.6573 4.64134 10.0451 3.37023 9.021C1.65446 10.4034 0.554199 12.5368 0.554199 14.9308C0.554199 15.0405 0.557015 15.1495 0.561559 15.2581H15.4385ZM10.5928 2.6589C10.5928 1.82964 11.2561 1.15738 12.0744 1.15738C12.8926 1.15738 13.5559 1.82964 13.5559 2.6589C13.5559 3.48815 12.8926 4.16041 12.0744 4.16041C11.2561 4.16041 10.5928 3.48815 10.5928 2.6589Z" fill="white"/>
</svg>
