<svg width="20" height="20" viewBox="0 0 20 20" fill="none" xmlns="http://www.w3.org/2000/svg">
<rect opacity="0.01" width="20" height="20" fill="black"/>
<path d="M9.99992 11.998L3.31292 5.31101C2.81792 4.81601 2.02592 4.81601 1.53092 5.31101C1.03592 5.80601 1.03592 6.59801 1.53092 7.09301L8.92892 14.491C8.97392 14.563 9.02792 14.626 9.09092 14.689C9.34292 14.941 9.66692 15.067 9.99992 15.058C10.3239 15.058 10.6569 14.941 10.9089 14.689C10.9719 14.626 11.0259 14.563 11.0709 14.491L18.4689 7.09301C18.7119 6.85001 18.8379 6.52601 18.8379 6.20201C18.8379 5.87801 18.7119 5.55401 18.4689 5.31101C17.9739 4.81601 17.1819 4.81601 16.6869 5.31101L9.99992 11.998Z" fill="#7AF7FF"/>
</svg>
