<svg width="10" height="11" viewBox="0 0 10 11" fill="none" xmlns="http://www.w3.org/2000/svg">
<path fill-rule="evenodd" clip-rule="evenodd" d="M7.61972 0.365138L9.26063 2.00605C9.72124 2.46665 9.72124 3.21514 9.26063 3.70453L8.51215 4.45302L5.17275 1.11362L5.92124 0.365138C6.38184 -0.0954677 7.15912 -0.0954677 7.61972 0.365138ZM1.74699 8.94393L3.56063 8.85756C3.90609 8.88635 4.22275 8.74241 4.45306 8.51211L7.9076 5.05756L4.56821 1.71817L1.11366 5.17271C0.883358 5.40302 0.768207 5.71968 0.768207 6.03635L0.624268 7.73484V7.79241C0.624268 8.10908 0.768207 8.39696 0.969722 8.59847C1.17124 8.79999 1.43033 8.91514 1.74699 8.94393ZM7.64851 9.63484H1.08487C0.854571 9.63484 0.653055 9.83635 0.653055 10.0667C0.653055 10.297 0.854571 10.4985 1.08487 10.4985H7.6773C7.9076 10.4985 8.10912 10.297 8.10912 10.0667C8.10912 9.83635 7.9076 9.63484 7.64851 9.63484Z" fill="white"/>
</svg>
