<svg width="20" height="20" viewBox="0 0 20 20" fill="none" xmlns="http://www.w3.org/2000/svg">
<rect opacity="0.01" width="20" height="20" fill="black"/>
<path fill-rule="evenodd" clip-rule="evenodd" d="M12.3104 3.54956C11.4417 3.19796 10.4946 3 9.5 3C5.3576 3 2 6.35796 2 10.4999C2 14.6424 5.3576 18 9.5 18C13.6424 18 17 14.6424 17 10.4999C17 9.50213 16.8009 8.55228 16.4477 7.68161L14.542 9.41819L14.3076 9.71199C14.3618 10.0018 14.3749 10.195 14.3749 10.4999C14.3749 13.1919 12.1921 15.3749 9.5 15.3749C6.80757 15.3749 4.62472 13.1919 4.62472 10.4999C4.62472 7.80752 6.80758 5.59858 9.5 5.62472C9.76529 5.62747 10.0199 5.63302 10.1715 5.66034L12.3104 3.54956ZM11.5011 7.85225L10.4455 8.90348C10.4498 8.90546 10.4531 8.90782 10.4558 8.9098L9.90308 9.45223C9.77757 9.40395 9.64254 9.37463 9.5 9.37463C8.87836 9.37463 8.3747 9.87826 8.3747 10.4999C8.3747 11.1219 8.87836 11.6252 9.5 11.6252C10.1212 11.6252 10.6244 11.1219 10.6244 10.4999C10.6244 10.357 10.5952 10.2215 10.5469 10.096L11.781 8.86189L11.7802 8.8615L12.1437 8.49802L14.3484 8.83337L17 6.18215L14.2268 5.78503L12.9317 7.07461L12.9281 7.07143L14.2387 5.76166L13.8182 3L11.1665 5.65201L11.5011 7.85225ZM9.84209 8.67104C9.73083 8.65087 9.6168 8.63661 9.5 8.63661C8.47094 8.63661 7.63667 9.47085 7.63669 10.4999C7.63669 11.529 8.47096 12.3628 9.50002 12.3628C10.5291 12.3628 11.3629 11.529 11.3629 10.4999C11.3629 10.3823 11.3495 10.2687 11.3289 10.1578L12.2871 9.19886L13.4959 9.44552C13.5846 9.78286 13.6365 10.1348 13.6365 10.4999C13.6365 12.7845 11.7846 14.6361 9.5 14.6361C7.21539 14.6361 5.36316 12.7845 5.36316 10.4999C5.36316 8.21534 7.21539 6.36313 9.5 6.36313C9.89279 6.36313 10.2713 6.42172 10.6316 6.52427L10.8106 7.69903L9.84209 8.67104Z" fill="#7AF7FF"/>
</svg>
