<svg width="20" height="20" viewBox="0 0 20 20" fill="none" xmlns="http://www.w3.org/2000/svg">
<rect opacity="0.01" width="20" height="20" fill="black"/>
<path fill-rule="evenodd" clip-rule="evenodd" d="M16.3198 3.07999H3.51982C2.83982 3.07999 2.31982 3.59999 2.31982 4.27999V15.44C2.31982 16.08 2.83982 16.64 3.51982 16.64H16.3198C16.9598 16.64 17.5198 16.08 17.5198 15.44V4.27999C17.5198 3.63999 16.9998 3.07999 16.3198 3.07999ZM6.23982 5.11999C6.91982 5.11999 7.51982 5.67999 7.51982 6.39999C7.51982 7.11999 6.95982 7.67999 6.23982 7.67999C5.55982 7.67999 4.95982 7.11999 4.95982 6.39999C4.95982 5.67999 5.55982 5.11999 6.23982 5.11999ZM4.95982 14.72C5.07982 14.8 5.19982 14.84 5.31982 14.84C5.31982 14.84 15.8798 14.84 15.8798 14.8V7.71999C15.3408 6.60354 14.4313 7.52499 14.1855 7.77407C14.1759 7.78378 14.1673 7.79248 14.1598 7.79999L10.2798 11.96L8.11982 10.44C7.87982 10.28 7.59982 10.32 7.39982 10.52L4.91982 14C4.71982 14.24 4.71982 14.52 4.95982 14.72Z" fill="url(#paint0_linear_0_2268)"/>
<defs>
<linearGradient id="paint0_linear_0_2268" x1="2.31982" y1="3.07999" x2="2.31982" y2="16.64" gradientUnits="userSpaceOnUse">
<stop stop-color="white"/>
<stop offset="1" stop-color="white"/>
</linearGradient>
</defs>
</svg>
