<svg width="16" height="16" viewBox="0 0 16 16" fill="none" xmlns="http://www.w3.org/2000/svg">
<rect opacity="0.01" width="16" height="16" fill="black"/>
<path d="M8.33609 4.45399C8.6881 3.98933 9.06143 3.56999 9.45609 3.19599C9.79743 2.88999 10.1841 2.61233 10.6161 2.36299C11.0481 2.11366 11.4988 2.00599 11.9681 2.03999C12.6294 2.09666 13.1814 2.26383 13.6241 2.54149C14.0668 2.81916 14.4188 3.17049 14.6801 3.59549C14.9414 4.02049 15.1201 4.50216 15.2161 5.04049C15.3121 5.57883 15.3441 6.13133 15.3121 6.69799C15.2801 7.26466 15.1868 7.80583 15.0321 8.32149C14.8774 8.83716 14.6854 9.31883 14.4561 9.76649C14.2268 10.2142 13.9734 10.6278 13.6961 11.0075C13.4188 11.3872 13.1414 11.73 12.8641 12.036C12.4374 12.5007 11.9921 12.9342 11.5281 13.3365C11.0641 13.7388 10.6214 14.0845 10.2001 14.3735C9.77876 14.6625 9.39476 14.892 9.04809 15.062C8.70143 15.232 8.43209 15.317 8.24009 15.317C8.02676 15.3283 7.75476 15.249 7.42409 15.079C7.09343 14.909 6.73076 14.6795 6.33609 14.3905C5.94143 14.1015 5.52543 13.7587 5.08809 13.362C4.65076 12.9653 4.21876 12.546 3.79209 12.104C3.51476 11.8207 3.21609 11.492 2.89609 11.118C2.57609 10.744 2.27476 10.3332 1.99209 9.88549C1.70943 9.43783 1.46676 8.95333 1.26409 8.43199C1.06143 7.91066 0.949428 7.35533 0.928095 6.76599C0.906761 6.17666 0.965428 5.62416 1.10409 5.10849C1.24276 4.59283 1.45076 4.13099 1.72809 3.72299C2.00543 3.31499 2.34676 2.97216 2.75209 2.69449C3.15743 2.41683 3.61609 2.22133 4.12809 2.10799C4.38409 2.05133 4.64009 2.04283 4.89609 2.08249C5.15209 2.12216 5.40276 2.19016 5.64809 2.28649C5.89343 2.38283 6.12809 2.50466 6.35209 2.65199C6.57609 2.79933 6.78943 2.95233 6.99209 3.11099C7.46143 3.48499 7.90943 3.93266 8.33609 4.45399Z" fill="white"/>
</svg>
