<svg width="18" height="18" viewBox="0 0 18 18" fill="none" xmlns="http://www.w3.org/2000/svg">
<rect opacity="0.01" width="18" height="18" fill="black"/>
<path fill-rule="evenodd" clip-rule="evenodd" d="M14.9794 4.75997C15.1623 4.57799 15.1632 4.28202 14.9815 4.09889H14.9814C14.8025 3.91868 14.5134 3.91493 14.3299 4.0883L14.3211 4.09683L8.86719 9.52266L3.4133 4.09683C3.23328 3.91774 2.94408 3.91577 2.76167 4.0903L2.75292 4.09888C2.57403 4.2791 2.57208 4.56861 2.74641 4.75122L2.75498 4.75997L8.53803 10.5133C8.71722 10.6915 9.00478 10.6944 9.18744 10.5219L9.19634 10.5133L14.9794 4.75997ZM14.9794 8.93113C15.1623 8.74913 15.1632 8.45316 14.9815 8.27003H14.9814C14.8025 8.08982 14.5134 8.08607 14.3299 8.25946L14.3211 8.26797L8.86716 13.6938L3.4133 8.26797C3.23328 8.08888 2.94408 8.08694 2.76167 8.26144L2.75292 8.27003C2.57403 8.45025 2.57208 8.73977 2.74641 8.92236L2.75498 8.93111L8.53803 14.6844C8.71722 14.8627 9.00478 14.8656 9.18744 14.6931L9.19634 14.6844L14.9794 8.93113Z" fill="white"/>
<path d="M14.9815 4.09889L15.1589 3.92277L15.0855 3.84889H14.9815V4.09889ZM14.9794 4.75997L15.1557 4.9372L15.1557 4.9372L14.9794 4.75997ZM14.9814 4.09889L14.804 4.27502L14.8773 4.34889H14.9814V4.09889ZM14.3299 4.0883L14.1582 3.90657L14.1558 3.90883L14.3299 4.0883ZM14.3211 4.09683L14.147 3.91735L14.1448 3.9196L14.3211 4.09683ZM8.86719 9.52266L8.69087 9.69989L8.86719 9.8753L9.04351 9.69989L8.86719 9.52266ZM3.4133 4.09683L3.23697 4.27406L3.23698 4.27406L3.4133 4.09683ZM2.76167 4.0903L2.58882 3.90965L2.58666 3.91178L2.76167 4.0903ZM2.75292 4.09888L2.57789 3.92034L2.57549 3.92276L2.75292 4.09888ZM2.74641 4.75122L2.56556 4.92387L2.56789 4.92624L2.74641 4.75122ZM2.75498 4.75997L2.57645 4.935L2.57866 4.9372L2.75498 4.75997ZM8.53803 10.5133L8.36171 10.6905L8.36172 10.6905L8.53803 10.5133ZM9.18744 10.5219L9.3591 10.7037L9.36135 10.7015L9.18744 10.5219ZM9.19634 10.5133L9.37028 10.6929L9.37266 10.6905L9.19634 10.5133ZM14.9815 8.27003L15.1589 8.09391L15.0855 8.02003H14.9815V8.27003ZM14.9794 8.93113L15.1557 9.10836L15.1557 9.10835L14.9794 8.93113ZM14.9814 8.27003L14.804 8.44616L14.8773 8.52003H14.9814V8.27003ZM14.3299 8.25946L14.1582 8.07774L14.1562 8.07968L14.3299 8.25946ZM14.3211 8.26797L14.1473 8.08817L14.1447 8.09074L14.3211 8.26797ZM8.86716 13.6938L8.69083 13.871L8.86716 14.0465L9.04348 13.871L8.86716 13.6938ZM3.4133 8.26797L3.23697 8.4452L3.23698 8.4452L3.4133 8.26797ZM2.76167 8.26144L2.58884 8.08078L2.58649 8.08308L2.76167 8.26144ZM2.75292 8.27003L2.57773 8.09166L2.57549 8.09391L2.75292 8.27003ZM2.74641 8.92236L2.56557 9.09501L2.56789 9.09738L2.74641 8.92236ZM2.75498 8.93111L2.57645 9.10614L2.57866 9.10834L2.75498 8.93111ZM8.53803 14.6844L8.36171 14.8617H8.36171L8.53803 14.6844ZM9.18744 14.6931L9.3591 14.8748L9.36135 14.8726L9.18744 14.6931ZM9.19634 14.6844L9.37028 14.864L9.37266 14.8617L9.19634 14.6844ZM14.804 4.27502C14.8886 4.36023 14.8882 4.49806 14.8031 4.58274L15.1557 4.9372C15.4364 4.65791 15.4379 4.2038 15.1589 3.92277L14.804 4.27502ZM14.9814 4.34889H14.9815V3.84889H14.9814V4.34889ZM14.5016 4.27001C14.5867 4.18958 14.7209 4.19133 14.804 4.27502L15.1589 3.92276C14.8841 3.64602 14.44 3.64027 14.1582 3.90659L14.5016 4.27001ZM14.4951 4.2763L14.5039 4.26777L14.1558 3.90883L14.147 3.91737L14.4951 4.2763ZM9.04351 9.69989L14.4974 4.27406L14.1448 3.9196L8.69087 9.34543L9.04351 9.69989ZM3.23698 4.27406L8.69087 9.69989L9.04351 9.34543L3.58962 3.9196L3.23698 4.27406ZM2.93451 4.27093C3.01912 4.18997 3.15337 4.19089 3.23697 4.27406L3.58962 3.9196C3.31319 3.64459 2.86903 3.64157 2.58884 3.90967L2.93451 4.27093ZM2.92794 4.2774L2.93669 4.26882L2.58666 3.91178L2.57791 3.92036L2.92794 4.2774ZM2.92724 4.57859C2.8462 4.4937 2.84713 4.35884 2.93035 4.275L2.57549 3.92276C2.30093 4.19936 2.29796 4.64352 2.56558 4.92385L2.92724 4.57859ZM2.9335 4.58496L2.92493 4.57621L2.56789 4.92624L2.57646 4.93499L2.9335 4.58496ZM8.71435 10.3361L2.9313 4.58274L2.57866 4.9372L8.36171 10.6905L8.71435 10.3361ZM9.01579 10.3402C8.93106 10.4202 8.79756 10.4188 8.71434 10.336L8.36172 10.6905C8.63687 10.9642 9.0785 10.9687 9.35909 10.7037L9.01579 10.3402ZM9.02243 10.3337L9.01352 10.3423L9.36135 10.7015L9.37026 10.6929L9.02243 10.3337ZM14.8031 4.58274L9.02002 10.3361L9.37266 10.6905L15.1557 4.9372L14.8031 4.58274ZM14.804 8.44616C14.8886 8.53137 14.8882 8.66921 14.8031 8.75391L15.1557 9.10835C15.4364 8.82905 15.4379 8.37495 15.1589 8.09391L14.804 8.44616ZM14.9814 8.52003H14.9815V8.02003H14.9814V8.52003ZM14.5016 8.44116C14.5867 8.36072 14.7209 8.36247 14.804 8.44616L15.1589 8.09391C14.8841 7.81716 14.44 7.81141 14.1582 8.07775L14.5016 8.44116ZM14.4948 8.44775L14.5036 8.43924L14.1562 8.07968L14.1473 8.08819L14.4948 8.44775ZM9.04348 13.871L14.4974 8.4452L14.1447 8.09074L8.69084 13.5166L9.04348 13.871ZM3.23698 8.4452L8.69083 13.871L9.04348 13.5166L3.58962 8.09074L3.23698 8.4452ZM2.93449 8.44209C3.01913 8.36112 3.15339 8.36205 3.23697 8.4452L3.58962 8.09074C3.31317 7.81571 2.86902 7.81277 2.58885 8.08079L2.93449 8.44209ZM2.9281 8.44839L2.93685 8.4398L2.58649 8.08308L2.57774 8.09168L2.9281 8.44839ZM2.92723 8.74973C2.8462 8.66486 2.84713 8.53 2.93035 8.44616L2.57549 8.09391C2.30093 8.37051 2.29795 8.81468 2.56558 9.095L2.92723 8.74973ZM2.9335 8.7561L2.92492 8.74735L2.56789 9.09738L2.57646 9.10613L2.9335 8.7561ZM8.71435 14.5072L2.9313 8.75388L2.57866 9.10834L8.36171 14.8617L8.71435 14.5072ZM9.01579 14.5113C8.93105 14.5913 8.79756 14.59 8.71435 14.5072L8.36171 14.8617C8.63688 15.1354 9.07851 15.1398 9.35909 14.8748L9.01579 14.5113ZM9.02243 14.5048L9.01352 14.5135L9.36135 14.8726L9.37026 14.864L9.02243 14.5048ZM14.8031 8.7539L9.02002 14.5072L9.37266 14.8617L15.1557 9.10836L14.8031 8.7539Z" fill="white"/>
</svg>
