<svg width="20" height="20" viewBox="0 0 20 20" fill="none" xmlns="http://www.w3.org/2000/svg">
<rect opacity="0.01" width="20" height="20" transform="matrix(-1 0 0 1 20 0)" fill="#7AF7FF"/>
<path d="M6.59774 1.66667C7.00858 1.66667 7.42566 1.81501 7.73899 2.12209L14.5465 8.8C14.8802 9.12792 15.0198 9.56876 14.9977 9.99792C15.0198 10.4271 14.8807 10.8675 14.5465 11.195L7.73899 17.8729C7.10748 18.4876 6.10134 18.4876 5.46983 17.8729C5.1693 17.5806 4.99976 17.1792 4.99976 16.76C4.99976 16.3408 5.1693 15.9394 5.46983 15.6471L11.229 9.99751L5.46983 4.34792C5.1693 4.05563 4.99976 3.65423 4.99976 3.23501C4.99976 2.81578 5.1693 2.41438 5.46983 2.12209C5.77085 1.82721 6.17636 1.66348 6.59774 1.66667Z" fill="#7AF7FF"/>
</svg>
