<svg width="22" height="20" viewBox="0 0 22 20" fill="none" xmlns="http://www.w3.org/2000/svg">
<rect opacity="0.01" width="20" height="20" fill="white"/>
<path fill-rule="evenodd" clip-rule="evenodd" d="M19.2187 18.8229C19.6771 19.2813 20.3646 19.2813 20.8229 18.8229C21.2812 18.3646 21.2812 17.6771 20.8229 17.2188L17.2708 13.6667C19.6771 10.5729 19.4479 6.10417 16.5833 3.23959C13.375 0.0312543 8.21875 0.145838 5.125 3.35417C2.03125 6.5625 2.26041 11.8333 5.46875 14.8125C8.33333 17.4479 12.5729 17.5625 15.6667 15.2708L19.2187 18.8229ZM6.15625 5.53125C8.44791 2.32292 13.1458 2.32292 15.4375 5.53125C16.9271 7.47917 16.9271 10.2292 15.4375 12.2917C13.1458 15.5 8.44791 15.5 6.15625 12.2917C4.66666 10.3438 4.66666 7.47917 6.15625 5.53125Z" fill="white"/>
</svg>
