<svg width="24" height="24" viewBox="0 0 24 24" fill="none" xmlns="http://www.w3.org/2000/svg">
<rect opacity="0.01" width="24" height="24" fill="white"/>
<path fill-rule="evenodd" clip-rule="evenodd" d="M20.6623 22.5875C21.2123 23.1375 22.0373 23.1375 22.5873 22.5875C23.1373 22.0375 23.1373 21.2125 22.5873 20.6625L18.3248 16.4C21.2123 12.6875 20.9373 7.325 17.4998 3.8875C13.6498 0.0374959 7.4623 0.174996 3.7498 4.025C0.0372999 7.875 0.3123 14.2 4.1623 17.775C7.5998 20.9375 12.6873 21.075 16.3998 18.325L20.6623 22.5875ZM4.9873 6.6375C7.7373 2.7875 13.3748 2.7875 16.1248 6.6375C17.9123 8.975 17.9123 12.275 16.1248 14.75C13.3748 18.6 7.7373 18.6 4.9873 14.75C3.1998 12.4125 3.1998 8.975 4.9873 6.6375Z" fill="#7AF7FF"/>
</svg>
