<svg width="24" height="24" viewBox="0 0 24 24" fill="none" xmlns="http://www.w3.org/2000/svg">
<rect opacity="0.01" width="24" height="24" fill="white"/>
<path fill-rule="evenodd" clip-rule="evenodd" d="M20.6623 22.5875C21.2123 23.1375 22.0373 23.1375 22.5873 22.5875C23.1373 22.0375 23.1373 21.2125 22.5873 20.6625L18.3248 16.4C21.2123 12.6875 20.9373 7.32501 17.4998 3.88751C13.6498 0.0375111 7.4623 0.175011 3.7498 4.02501C0.0372999 7.87501 0.3123 14.2 4.1623 17.775C7.5998 20.9375 12.6873 21.075 16.3998 18.325L20.6623 22.5875ZM4.9873 6.63751C7.7373 2.78751 13.3748 2.78751 16.1248 6.63751C17.9123 8.97501 17.9123 12.275 16.1248 14.75C13.3748 18.6 7.7373 18.6 4.9873 14.75C3.1998 12.4125 3.1998 8.97501 4.9873 6.63751Z" fill="#7AF7FF"/>
</svg>
