<svg width="18" height="18" viewBox="0 0 18 18" fill="none" xmlns="http://www.w3.org/2000/svg">
<rect opacity="0.01" width="17.9057" height="17.9057" fill="black"/>
<path d="M11.8688 12.7897C12.1118 12.7932 12.3461 12.699 12.5192 12.5283C12.6922 12.3577 12.7897 12.1247 12.7896 11.8817V0.908155C12.7897 0.665089 12.6922 0.432159 12.5192 0.261492C12.3461 0.0908241 12.1118 -0.00333327 11.8688 9.01942e-05H0.908064C0.406554 9.01942e-05 0 0.406644 0 0.908155V11.8817C0 12.3832 0.406554 12.7897 0.908064 12.7897H11.8688Z" fill="#7AF7FF"/>
<path d="M16.9848 5.11581H14.0687V13.0582C14.0687 13.3261 13.9623 13.5831 13.7728 13.7726C13.5833 13.9621 13.3263 14.0686 13.0583 14.0686H5.11597V16.9974C5.11594 17.2405 5.21337 17.4734 5.38644 17.6441C5.55951 17.8147 5.79378 17.9089 6.03682 17.9055H16.9975C17.4991 17.9055 17.9056 17.4989 17.9056 16.9974V6.02388C17.9056 5.78081 17.8082 5.54788 17.6351 5.37721C17.4621 5.20655 17.2278 5.11239 16.9848 5.11581Z" fill="#7AF7FF"/>
</svg>
