<svg width="14" height="22" viewBox="0 0 14 22" fill="none" xmlns="http://www.w3.org/2000/svg">
<path fill-rule="evenodd" clip-rule="evenodd" d="M3.11778 1.84156C3.11778 2.88678 3.9639 3.68313 4.95934 3.68313C6.00456 3.68313 6.80091 2.88678 6.80091 1.84156C6.80091 0.796352 6.00456 0 4.95934 0C3.91413 0 3.11778 0.846124 3.11778 1.84156ZM10.4343 13.3887V10.2033C10.4343 9.12136 9.46018 7.48285 9.14076 6.94555C9.07811 6.84017 9.04065 6.77715 9.04065 6.76899C8.89133 6.02241 9.68769 6.5699 9.68769 6.5699L10.3845 7.1174C11.0813 7.56534 11.1808 7.8142 11.1808 7.8142L11.2306 10.9996C11.2306 11.2982 12.1763 11.5969 12.1763 11.5969C12.7238 11.5969 12.6242 10.8005 12.6242 10.8005V6.61968C12.6242 6.17173 12.027 5.82332 12.027 5.82332L7.79635 3.88222C6.80091 3.48404 6.00456 4.13108 6.00456 4.13108C4.36208 4.6288 4.06345 6.42059 4.06345 6.42059C4.16299 8.01329 2.27166 9.25759 2.27166 9.25759L0.678953 10.1535C0.131461 10.3526 0.479865 11.1489 0.479865 11.1489C0.629181 11.6964 1.62462 11.348 1.62462 11.348L3.41641 10.701C4.95934 9.90463 4.8598 9.15805 4.8598 9.15805C5.2082 8.61056 5.7557 9.25759 5.7557 9.25759L6.20364 11.7462V12.6421C3.51596 15.6782 3.36664 18.7143 3.36664 18.7143V21.3522C3.36664 22.049 4.31231 21.9992 4.31231 21.9992C5.65615 21.9992 5.45706 21.3024 5.45706 21.3024C5.45706 18.4156 5.95478 17.3704 5.95478 17.3704L7.79635 15.3298C8.2443 14.8321 8.84156 16.2754 8.84156 16.2754L11.4297 21.2029C11.8777 22.0988 12.8233 21.9494 12.8233 21.9494C14.2667 21.5015 13.3708 20.1079 13.3708 20.1079L10.4343 13.3887Z" fill="#7AF7FF"/>
</svg>
